HIERARCHY
ROOT newVegas:Hips
{
	OFFSET 0.000000 96.479958 0.000000
	CHANNELS 6 Xposition Yposition Zposition Xrotation Yrotation Zrotation
	JOINT newVegas:Pelvis
	{
		OFFSET 0.000000 0.000000 0.000000
		CHANNELS 3 Xrotation Yrotation Zrotation
		JOINT newVegas:LeftUpLeg
		{
			OFFSET 18.735201 -5.666702 -4.541200
			CHANNELS 3 Xrotation Yrotation Zrotation
			JOINT newVegas:LeftLeg
			{
				OFFSET -0.021200 -31.938179 0.493100
				CHANNELS 3 Xrotation Yrotation Zrotation
				JOINT newVegas:LeftFoot
				{
					OFFSET 0.021200 -31.938179 -4.336299
					CHANNELS 3 Xrotation Yrotation Zrotation
					JOINT newVegas:LeftToeBase
					{
						OFFSET 0.943001 -26.722000 15.023500
						CHANNELS 3 Xrotation Yrotation Zrotation
						End Site
						{
							OFFSET 0.000000 30.670183 0.000000
						}
					}
				}
				JOINT newVegas:Left_PantLeg
				{
					OFFSET 0.663870 -9.044666 -1.108900
					CHANNELS 3 Xrotation Yrotation Zrotation
					End Site
					{
						OFFSET 1.415995 20.635357 0.000000
					}
				}
			}
		}
		JOINT newVegas:RightUpLeg
		{
			OFFSET -18.735201 -5.666702 -4.541200
			CHANNELS 3 Xrotation Yrotation Zrotation
			JOINT newVegas:RightLeg
			{
				OFFSET 0.018946 -31.938133 0.493100
				CHANNELS 3 Xrotation Yrotation Zrotation
				JOINT newVegas:RightFoot
				{
					OFFSET -0.018946 -31.938126 -4.336299
					CHANNELS 3 Xrotation Yrotation Zrotation
					JOINT newVegas:RightToeBase
					{
						OFFSET -0.943001 -26.722004 15.023500
						CHANNELS 3 Xrotation Yrotation Zrotation
						End Site
						{
							OFFSET 0.000000 30.670187 0.000000
						}
					}
				}
				JOINT newVegas:Right_PantLeg
				{
					OFFSET -0.661674 -9.044716 -1.108900
					CHANNELS 3 Xrotation Yrotation Zrotation
					End Site
					{
						OFFSET -1.415958 20.635269 0.000000
					}
				}
			}
		}
	}
	JOINT newVegas:Spine
	{
		OFFSET 0.000000 10.199997 -0.299500
		CHANNELS 3 Xrotation Yrotation Zrotation
		JOINT newVegas:Spine1
		{
			OFFSET 0.000000 11.900002 -1.516600
			CHANNELS 3 Xrotation Yrotation Zrotation
			JOINT newVegas:Spine2
			{
				OFFSET 0.000000 13.600006 -2.842500
				CHANNELS 3 Xrotation Yrotation Zrotation
				JOINT newVegas:Neck
				{
					OFFSET 0.000000 9.624100 -2.890100
					CHANNELS 3 Xrotation Yrotation Zrotation
					JOINT newVegas:Head
					{
						OFFSET 0.000000 14.068802 -1.351900
						CHANNELS 3 Xrotation Yrotation Zrotation
						JOINT newVegas:Hair_Back
						{
							OFFSET 0.000000 3.231903 -17.524799
							CHANNELS 3 Xrotation Yrotation Zrotation
							End Site
							{
								OFFSET 0.000000 19.849884 0.000000
							}
						}
						JOINT newVegas:Hair_Front
						{
							OFFSET 0.000000 31.260406 4.573800
							CHANNELS 3 Xrotation Yrotation Zrotation
							JOINT newVegas:Hair_Front1
							{
								OFFSET 0.000000 2.284103 11.993300
								CHANNELS 3 Xrotation Yrotation Zrotation
								JOINT newVegas:Hair_Front2
								{
									OFFSET 0.000000 2.284103 11.993300
									CHANNELS 3 Xrotation Yrotation Zrotation
									End Site
									{
										OFFSET 0.000000 12.208862 0.000000
									}
								}
							}
						}
						JOINT newVegas:Jowel
						{
							OFFSET 0.000000 -7.458206 6.864100
							CHANNELS 3 Xrotation Yrotation Zrotation
							End Site
							{
								OFFSET 0.000000 19.849884 0.000000
							}
						}
					}
				}
				JOINT newVegas:LeftShoulder
				{
					OFFSET 15.263000 10.923401 -0.547700
					CHANNELS 3 Xrotation Yrotation Zrotation
					JOINT newVegas:LeftArm
					{
						OFFSET 25.438599 -2.830597 -13.032500
						CHANNELS 3 Xrotation Yrotation Zrotation
						JOINT newVegas:LeftForeArm
						{
							OFFSET 29.960503 0.000000 0.000000
							CHANNELS 3 Xrotation Yrotation Zrotation
							JOINT newVegas:LeftHand
							{
								OFFSET 27.849251 0.000000 0.000000
								CHANNELS 3 Xrotation Yrotation Zrotation
								JOINT newVegas:LeftHandThumb1
								{
									OFFSET 4.487587 -3.305161 6.305391
									CHANNELS 3 Xrotation Yrotation Zrotation
									JOINT newVegas:LeftHandThumb2
									{
										OFFSET 5.480453 -3.164139 3.164143
										CHANNELS 3 Xrotation Yrotation Zrotation
										JOINT newVegas:LeftHandThumb3
										{
											OFFSET 5.159721 -2.978973 2.978967
											CHANNELS 3 Xrotation Yrotation Zrotation
											End Site
											{
												OFFSET 2.494507 5.926697 1.738678
											}
										}
									}
								}
								JOINT newVegas:LeftHandIndex1
								{
									OFFSET 18.578728 -0.527832 5.208049
									CHANNELS 3 Xrotation Yrotation Zrotation
									JOINT newVegas:LeftHandIndex2
									{
										OFFSET 3.192009 0.000000 0.000000
										CHANNELS 3 Xrotation Yrotation Zrotation
										JOINT newVegas:LeftHandIndex3
										{
											OFFSET 3.835129 0.000000 0.000000
											CHANNELS 3 Xrotation Yrotation Zrotation
											End Site
											{
												OFFSET -0.034599 3.816971 0.371180
											}
										}
									}
								}
								JOINT newVegas:LeftHandMiddle1
								{
									OFFSET 18.476105 0.000000 0.000000
									CHANNELS 3 Xrotation Yrotation Zrotation
									JOINT newVegas:LeftHandMiddle2
									{
										OFFSET 3.324875 0.000000 0.000000
										CHANNELS 3 Xrotation Yrotation Zrotation
										JOINT newVegas:LeftHandMiddle3
										{
											OFFSET 4.596550 0.000000 0.000000
											CHANNELS 3 Xrotation Yrotation Zrotation
											End Site
											{
												OFFSET 0.057701 4.578827 0.399218
											}
										}
									}
								}
								JOINT newVegas:LeftHandRing1
								{
									OFFSET 17.732719 0.121887 -4.201567
									CHANNELS 3 Xrotation Yrotation Zrotation
									JOINT newVegas:LeftHandRing2
									{
										OFFSET 2.733170 0.000000 0.000000
										CHANNELS 3 Xrotation Yrotation Zrotation
										JOINT newVegas:LeftHandRing3
										{
											OFFSET 3.178268 0.000000 0.000000
											CHANNELS 3 Xrotation Yrotation Zrotation
											End Site
											{
												OFFSET 0.119102 3.170624 0.185394
											}
										}
									}
								}
								JOINT newVegas:LeftHandPinky1
								{
									OFFSET 15.989624 -0.606689 -7.535461
									CHANNELS 3 Xrotation Yrotation Zrotation
									JOINT newVegas:LeftHandPinky2
									{
										OFFSET 2.538986 0.000000 0.000000
										CHANNELS 3 Xrotation Yrotation Zrotation
										JOINT newVegas:LeftHandPinky3
										{
											OFFSET 2.593102 0.000000 0.000000
											CHANNELS 3 Xrotation Yrotation Zrotation
											End Site
											{
												OFFSET -0.150902 2.584198 0.152708
											}
										}
									}
								}
							}
							JOINT newVegas:Left_Sleeve
							{
								OFFSET 0.267448 -0.649796 0.577675
								CHANNELS 3 Xrotation Yrotation Zrotation
								End Site
								{
									OFFSET 0.000000 15.991241 0.000000
								}
							}
							JOINT newVegas:Left_CapeC
							{
								OFFSET 15.715958 -8.608795 -6.935905
								CHANNELS 3 Xrotation Yrotation Zrotation
								JOINT newVegas:Left_CapeC1
								{
									OFFSET 0.000000 -8.688499 0.000000
									CHANNELS 3 Xrotation Yrotation Zrotation
									End Site
									{
										OFFSET 0.000000 8.688499 0.000000
									}
								}
							}
						}
						JOINT newVegas:Left_CapeB
						{
							OFFSET 26.118385 -8.608795 -7.079235
							CHANNELS 3 Xrotation Yrotation Zrotation
							JOINT newVegas:Left_CapeB1
							{
								OFFSET 0.000000 -8.688499 0.000000
								CHANNELS 3 Xrotation Yrotation Zrotation
								End Site
								{
									OFFSET 0.000000 8.688499 0.000000
								}
							}
						}
						JOINT newVegas:Left_CapeA
						{
							OFFSET 5.115639 -8.608795 -10.395809
							CHANNELS 3 Xrotation Yrotation Zrotation
							JOINT newVegas:Left_CapeA1
							{
								OFFSET 0.000000 -8.688499 0.000000
								CHANNELS 3 Xrotation Yrotation Zrotation
								End Site
								{
									OFFSET 0.000000 8.688499 0.000000
								}
							}
						}
					}
				}
				JOINT newVegas:RightShoulder
				{
					OFFSET -15.263000 10.923401 -0.547700
					CHANNELS 3 Xrotation Yrotation Zrotation
					JOINT newVegas:RightArm
					{
						OFFSET -25.438599 -2.830597 -13.032500
						CHANNELS 3 Xrotation Yrotation Zrotation
						JOINT newVegas:RightForeArm
						{
							OFFSET -29.960503 0.000000 0.000000
							CHANNELS 3 Xrotation Yrotation Zrotation
							JOINT newVegas:RightHand
							{
								OFFSET -27.849251 0.000000 0.000000
								CHANNELS 3 Xrotation Yrotation Zrotation
								JOINT newVegas:RightHandThumb1
								{
									OFFSET -4.487587 -3.305161 6.305391
									CHANNELS 3 Xrotation Yrotation Zrotation
									JOINT newVegas:RightHandThumb2
									{
										OFFSET -5.480453 -3.164139 3.164143
										CHANNELS 3 Xrotation Yrotation Zrotation
										JOINT newVegas:RightHandThumb3
										{
											OFFSET -5.159721 -2.978973 2.978967
											CHANNELS 3 Xrotation Yrotation Zrotation
											End Site
											{
												OFFSET -2.494507 5.926697 1.738678
											}
										}
									}
								}
								JOINT newVegas:RightHandIndex1
								{
									OFFSET -18.578728 -0.527832 5.208049
									CHANNELS 3 Xrotation Yrotation Zrotation
									JOINT newVegas:RightHandIndex2
									{
										OFFSET -3.192009 0.000000 0.000000
										CHANNELS 3 Xrotation Yrotation Zrotation
										JOINT newVegas:RightHandIndex3
										{
											OFFSET -3.835129 0.000000 0.000000
											CHANNELS 3 Xrotation Yrotation Zrotation
											End Site
											{
												OFFSET 0.034599 3.816971 0.371180
											}
										}
									}
								}
								JOINT newVegas:RightHandMiddle1
								{
									OFFSET -18.476105 0.000000 0.000000
									CHANNELS 3 Xrotation Yrotation Zrotation
									JOINT newVegas:RightHandMiddle2
									{
										OFFSET -3.324875 0.000000 0.000000
										CHANNELS 3 Xrotation Yrotation Zrotation
										JOINT newVegas:RightHandMiddle3
										{
											OFFSET -4.596550 0.000000 0.000000
											CHANNELS 3 Xrotation Yrotation Zrotation
											End Site
											{
												OFFSET -0.057701 4.578827 0.399218
											}
										}
									}
								}
								JOINT newVegas:RightHandRing1
								{
									OFFSET -17.732719 0.121887 -4.201567
									CHANNELS 3 Xrotation Yrotation Zrotation
									JOINT newVegas:RightHandRing2
									{
										OFFSET -2.733170 0.000000 0.000000
										CHANNELS 3 Xrotation Yrotation Zrotation
										JOINT newVegas:RightHandRing3
										{
											OFFSET -3.178268 0.000000 0.000000
											CHANNELS 3 Xrotation Yrotation Zrotation
											End Site
											{
												OFFSET -0.119102 3.170624 0.185394
											}
										}
									}
								}
								JOINT newVegas:RightHandPinky1
								{
									OFFSET -15.989624 -0.606689 -7.535461
									CHANNELS 3 Xrotation Yrotation Zrotation
									JOINT newVegas:RightHandPinky2
									{
										OFFSET -2.538986 0.000000 0.000000
										CHANNELS 3 Xrotation Yrotation Zrotation
										JOINT newVegas:RightHandPinky3
										{
											OFFSET -2.593102 0.000000 0.000000
											CHANNELS 3 Xrotation Yrotation Zrotation
											End Site
											{
												OFFSET 0.150902 2.584198 0.152708
											}
										}
									}
								}
							}
							JOINT newVegas:Right_CapeC
							{
								OFFSET -15.715958 -8.608795 -6.935905
								CHANNELS 3 Xrotation Yrotation Zrotation
								JOINT newVegas:Right_CapeC1
								{
									OFFSET 0.000000 -8.688499 0.000000
									CHANNELS 3 Xrotation Yrotation Zrotation
									End Site
									{
										OFFSET 0.000000 8.688499 0.000000
									}
								}
							}
							JOINT newVegas:Right_Sleeve
							{
								OFFSET -0.267448 -0.649994 0.577675
								CHANNELS 3 Xrotation Yrotation Zrotation
								End Site
								{
									OFFSET 0.000000 15.991302 0.000000
								}
							}
						}
						JOINT newVegas:Right_CapeA
						{
							OFFSET -5.115540 -8.608795 -10.395824
							CHANNELS 3 Xrotation Yrotation Zrotation
							JOINT newVegas:Right_CapeA1
							{
								OFFSET 0.000000 -8.688499 0.000000
								CHANNELS 3 Xrotation Yrotation Zrotation
								End Site
								{
									OFFSET 0.000000 8.688499 0.000000
								}
							}
						}
						JOINT newVegas:Right_CapeB
						{
							OFFSET -26.118187 -8.608795 -7.079266
							CHANNELS 3 Xrotation Yrotation Zrotation
							JOINT newVegas:Right_CapeB1
							{
								OFFSET 0.000000 -8.688499 0.000000
								CHANNELS 3 Xrotation Yrotation Zrotation
								End Site
								{
									OFFSET 0.000000 8.688499 0.000000
								}
							}
						}
					}
				}
				JOINT newVegas:Left_Collar
				{
					OFFSET 18.625099 8.655502 8.828100
					CHANNELS 3 Xrotation Yrotation Zrotation
					JOINT newVegas:Left_Collar1
					{
						OFFSET 14.783401 10.540405 -1.259500
						CHANNELS 3 Xrotation Yrotation Zrotation
						End Site
						{
							OFFSET 0.000000 18.199875 0.000000
						}
					}
				}
				JOINT newVegas:Collar_Back
				{
					OFFSET 0.000000 15.630707 -20.132601
					CHANNELS 3 Xrotation Yrotation Zrotation
					End Site
					{
						OFFSET 0.000000 22.523010 0.000000
					}
				}
				JOINT newVegas:Left_Peck
				{
					OFFSET 17.239599 -5.132599 25.482599
					CHANNELS 3 Xrotation Yrotation Zrotation
					End Site
					{
						OFFSET 0.000000 22.523010 0.000000
					}
				}
				JOINT newVegas:Right_Peck
				{
					OFFSET -17.239599 -5.132202 25.482599
					CHANNELS 3 Xrotation Yrotation Zrotation
					End Site
					{
						OFFSET 0.000000 22.523010 0.000000
					}
				}
				JOINT newVegas:Right_Collar
				{
					OFFSET -18.625099 8.655792 8.828100
					CHANNELS 3 Xrotation Yrotation Zrotation
					JOINT newVegas:Right_Collar1
					{
						OFFSET -14.783401 10.539993 -1.259500
						CHANNELS 3 Xrotation Yrotation Zrotation
						End Site
						{
							OFFSET 0.000000 18.199631 0.000000
						}
					}
				}
			}
		}
		JOINT newVegas:Belly
		{
			OFFSET 0.000000 -6.540398 9.014299
			CHANNELS 3 Xrotation Yrotation Zrotation
			End Site
			{
				OFFSET 0.000000 11.566666 0.000000
			}
		}
	}
	JOINT newVegas:ElvisFacialAnim_Joint
	{
		OFFSET 1.000000 -95.330101 -8.825800
		CHANNELS 3 Xrotation Yrotation Zrotation
		End Site
		{
			OFFSET 0.000000 35.315800 0.000000
		}
	}
}
MOTION
Frames: 4
Frame Time: 0.016667
10.864135 83.394081 4.276957 9.503187 -0.425003 -10.235930 0.000001 -0.000000 -0.000001 -58.384846 -12.955399 29.782295 53.369066 -4.165310 -2.379771 -0.779122 2.243380 -15.268458 0.000000 0.000000 -0.000000 -0.000000 0.000001 0.000003 -38.720520 -26.666104 3.600406 52.580733 5.699288 -0.842719 -23.968508 -19.669621 -8.154782 -0.000000 -0.000002 -0.000000 -0.000001 0.000001 -0.000001 8.486003 -3.514165 -7.279832 6.795707 -2.703226 -6.539372 6.822731 -2.529060 -6.561665 -2.700826 -0.126732 -2.498664 -2.700836 -0.126727 -2.498625 -0.000000 -0.000001 -0.000000 -2.700857 -0.126689 -2.498663 -2.700732 -0.126802 -2.498652 -0.000000 0.000001 0.000002 -0.000000 -0.000001 0.000000 0.657390 -5.474593 -9.273250 -31.650864 6.573776 -19.060515 0.000014 -57.717277 0.000014 -13.439162 -6.592293 17.306752 -6.000699 -6.126809 4.616777 7.611071 24.884947 2.404804 0.000003 -0.000001 -0.000003 2.912881 7.374274 -59.057955 2.905706 5.057894 -59.732251 -0.000002 -0.000000 -0.000001 2.252966 6.917794 -51.180786 3.608297 5.405532 -67.425858 0.000001 0.000001 0.000001 3.218393 7.543734 -62.485385 3.684680 5.436524 -68.234327 0.000003 0.000001 0.000000 3.994158 7.876015 -70.768826 2.411823 4.736393 -53.951739 -0.000002 -0.000003 -0.000001 0.000001 0.000004 0.000001 0.000001 0.000004 0.000001 -0.000000 0.000004 0.000001 -0.000000 0.000001 -0.000002 -0.000000 0.000001 -0.000002 -0.000000 0.000001 -0.000002 -0.000000 0.000001 -0.000002 0.361038 -0.787753 2.746810 26.141086 -12.666229 76.530822 -0.000021 79.226820 0.000025 -6.073254 16.835014 -10.845161 -7.540278 -3.885181 -4.751895 7.955437 -28.077794 -3.121205 -0.000001 0.000000 0.000003 0.055201 3.456506 6.528611 0.319251 -1.696226 21.316691 0.000002 -0.000003 0.000002 -0.862799 -0.131498 17.725509 0.409670 -1.911714 24.188109 0.000001 -0.000003 -0.000002 2.184510 -6.710167 36.224188 0.531187 -2.161828 27.606142 0.000002 -0.000001 -0.000003 6.372305 -15.465785 52.716978 0.699895 -2.457399 31.790924 -0.000002 -0.000004 -0.000000 -0.000000 0.000000 -0.000004 -0.000000 0.000000 0.000000 -0.000000 0.000000 -0.000002 0.000001 -0.000001 -0.000002 0.000001 0.000000 -0.000002 0.000001 -0.000001 -0.000002 0.000001 -0.000000 -0.000001 -0.000003 0.000001 0.000001 -0.000003 0.000001 0.000001 -0.000003 0.000001 0.000001 -0.000003 0.000001 0.000001 -0.000003 0.000001 0.000001 -0.000003 0.000001 0.000001 -0.000003 0.000001 0.000001 0.000001 -0.000000 0.000001 0.000001 -0.000000 -0.000001 
10.824674 83.057228 3.618992 9.251402 -1.509051 -9.961838 -0.000000 -0.000000 0.000000 -58.554337 -13.300112 29.990626 54.339578 -3.463914 -2.398649 -0.894467 2.247586 -15.330781 0.000000 0.000000 -0.000000 -0.000000 -0.000000 0.000001 -40.214521 -25.840001 3.722895 53.754009 5.712121 -0.853110 -23.612463 -19.821115 -8.500206 0.000000 -0.000002 0.000000 0.000001 -0.000000 0.000000 8.975496 -3.155536 -6.981171 7.111675 -2.571605 -6.414009 7.134267 -2.411995 -6.415061 -2.729672 -0.120285 -2.479974 -2.729680 -0.120282 -2.479956 0.000001 0.000000 0.000001 -2.729655 -0.120304 -2.479973 -2.729668 -0.120266 -2.479955 -0.000001 0.000000 0.000003 0.000001 0.000000 0.000001 0.636255 -5.572585 -9.846502 -30.413087 9.620333 -20.356774 0.000001 -56.737002 0.000012 -14.343220 -6.360669 17.068860 -6.000704 -6.126804 4.616776 7.611075 24.884946 2.404807 0.000001 -0.000001 -0.000001 2.751049 7.274449 -57.192845 2.743407 4.960002 -57.873620 -0.000002 -0.000001 -0.000000 2.121138 6.809307 -49.506215 3.475107 5.348456 -66.004605 0.000004 0.000000 0.000001 3.090077 7.475450 -61.059835 3.661145 5.427104 -67.985736 0.000001 -0.000001 0.000001 3.970095 7.867649 -70.519203 2.461743 4.772188 -54.554012 0.000001 -0.000002 0.000001 -0.000001 -0.000002 0.000001 -0.000001 -0.000002 0.000001 -0.000002 -0.000002 0.000001 0.000000 0.000000 0.000001 0.000000 0.000001 0.000001 0.000000 0.000000 0.000001 -0.000000 -0.000000 0.000001 0.435996 -0.154701 3.207687 23.731627 -11.004968 75.385310 -0.000032 77.036324 0.000021 -6.027876 16.951327 -10.577453 -7.540282 -3.885184 -4.751899 7.955439 -28.077788 -3.121212 0.000001 -0.000003 0.000001 0.053071 3.449675 6.560486 0.320763 -1.700109 21.368032 0.000003 0.000002 -0.000002 -0.863771 -0.045908 17.352791 0.369563 -1.819832 22.956421 -0.000001 -0.000002 0.000001 2.141065 -6.687477 35.625816 0.466206 -2.032796 25.830589 -0.000000 0.000001 0.000001 6.464566 -15.829428 52.143546 0.608260 -2.303114 29.584712 0.000002 -0.000004 -0.000001 -0.000001 -0.000001 -0.000002 0.000000 -0.000001 0.000000 -0.000001 -0.000001 -0.000002 0.000002 -0.000001 0.000002 0.000002 0.000000 0.000001 0.000002 -0.000001 0.000002 0.000002 0.000000 0.000002 -0.000000 0.000001 -0.000001 -0.000000 0.000001 -0.000001 -0.000000 0.000001 -0.000001 -0.000000 0.000001 -0.000001 -0.000000 0.000001 -0.000001 -0.000000 0.000001 -0.000001 -0.000000 0.000001 -0.000001 0.000001 0.000000 0.000000 -0.000000 -0.000000 0.000000 
10.748257 82.819122 3.252968 8.974594 -2.900724 -9.654091 -0.000000 -0.000000 0.000000 -58.141295 -13.606404 30.473674 55.435325 -2.346234 -2.429490 -1.441501 2.322556 -15.661094 -0.000000 -0.000001 -0.000000 0.000000 0.000000 0.000000 -41.207255 -25.151675 3.974135 54.572474 6.086934 -0.861398 -23.281747 -19.812366 -8.950266 0.000000 -0.000002 -0.000000 0.000003 0.000001 0.000001 9.423529 -2.800490 -6.704640 7.403575 -2.428329 -6.253433 7.422361 -2.272615 -6.260114 -2.711330 -0.111766 -2.448373 -2.711327 -0.111773 -2.448398 -0.000002 0.000000 0.000002 -2.711297 -0.111793 -2.448380 -2.711324 -0.111767 -2.448383 -0.000000 0.000001 0.000004 -0.000002 0.000000 0.000001 0.598235 -5.646885 -10.458237 -29.130053 12.344775 -22.295081 0.000010 -55.646965 0.000014 -14.802869 -6.104342 16.567017 -6.000699 -6.126802 4.616778 7.611076 24.884949 2.404806 0.000002 -0.000003 -0.000005 2.566466 7.151427 -55.016607 2.558144 4.839163 -55.704721 -0.000001 0.000000 0.000001 1.968717 6.675438 -47.516281 3.314505 5.274363 -64.269806 0.000006 -0.000001 0.000000 2.935865 7.387849 -59.319995 3.593737 5.399477 -67.271148 -0.000001 -0.000001 0.000001 3.901203 7.843025 -69.801535 2.469456 4.777666 -54.646779 -0.000002 -0.000002 -0.000001 0.000001 0.000001 0.000003 0.000001 0.000001 0.000003 0.000001 0.000001 0.000002 -0.000000 -0.000001 0.000001 -0.000000 -0.000001 0.000001 -0.000000 -0.000001 0.000001 -0.000000 -0.000001 0.000001 0.490283 0.533998 3.685337 21.315677 -9.569346 74.194316 0.000011 75.301353 0.000013 -5.901940 17.065883 -10.420039 -7.540278 -3.885180 -4.751898 7.955437 -28.077788 -3.121209 0.000002 0.000000 -0.000004 0.047261 3.429594 6.654579 0.325278 -1.711591 21.519457 -0.000001 0.000002 0.000001 -0.863928 -0.016321 17.224368 0.341050 -1.751020 22.041114 -0.000002 -0.000003 -0.000000 2.108130 -6.669253 35.181198 0.413865 -1.921012 24.313677 -0.000001 -0.000001 -0.000001 6.538815 -16.144255 51.652363 0.530191 -2.159927 27.579921 -0.000002 -0.000002 -0.000000 -0.000002 -0.000001 0.000003 -0.000001 -0.000001 0.000003 -0.000002 -0.000001 0.000001 -0.000000 0.000001 0.000003 -0.000000 0.000002 0.000003 -0.000000 0.000001 0.000003 0.000000 0.000002 0.000003 0.000001 -0.000001 -0.000002 0.000001 -0.000001 -0.000002 0.000001 -0.000001 -0.000002 0.000001 -0.000001 -0.000002 0.000001 -0.000001 -0.000002 0.000001 -0.000001 -0.000002 0.000001 -0.000001 -0.000002 0.000001 0.000001 0.000000 -0.000000 -0.000000 0.000000 
10.655077 82.608643 2.946023 8.777773 -4.004519 -9.386539 -0.000001 0.000000 0.000001 -58.041356 -13.776046 30.690502 56.557125 -1.429026 -2.446608 -1.953187 2.361240 -15.569606 0.000000 0.000001 0.000000 -0.000000 -0.000000 -0.000000 -42.065544 -24.444699 4.273842 55.271393 6.189742 -0.870206 -23.018706 -19.837601 -9.243864 -0.000000 -0.000002 -0.000000 -0.000002 0.000002 -0.000002 9.791273 -2.513995 -6.490269 7.641417 -2.286363 -6.122385 7.656625 -2.105084 -6.121622 -2.688434 -0.103979 -2.397024 -2.688438 -0.103980 -2.397038 -0.000000 0.000001 0.000001 -2.688418 -0.104010 -2.397030 -2.688362 -0.103937 -2.397049 0.000002 0.000000 0.000001 -0.000000 0.000001 0.000001 0.557991 -5.698680 -11.061477 -27.972070 14.186035 -24.353200 -0.000014 -54.075134 -0.000011 -14.800740 -5.737583 15.942792 -6.000700 -6.126807 4.616786 7.611074 24.884949 2.404805 -0.000001 -0.000001 -0.000006 2.366240 7.006031 -52.589298 2.357037 4.696162 -53.285338 0.000004 -0.000001 -0.000001 1.801738 6.517403 -45.261290 3.131650 5.182642 -62.263608 0.000001 0.000000 -0.000000 2.760938 7.280750 -57.308081 3.487484 5.353920 -66.137254 0.000002 0.000001 -0.000000 3.792472 7.802168 -68.662819 2.448832 4.763017 -54.398717 0.000002 -0.000002 -0.000001 0.000001 0.000000 0.000001 0.000001 0.000000 0.000001 0.000001 0.000000 0.000000 -0.000000 0.000001 0.000001 0.000000 0.000002 -0.000001 -0.000000 0.000001 0.000001 0.000000 0.000001 0.000001 0.544758 1.131274 4.238602 19.483453 -8.250638 73.006669 -0.000046 73.739036 0.000032 -5.737835 17.098176 -10.273465 -7.540279 -3.885177 -4.751898 7.955441 -28.077794 -3.121210 0.000000 0.000000 0.000001 0.037155 3.396649 6.808482 0.332713 -1.730319 21.767191 -0.000000 -0.000002 0.000002 -0.863999 -0.023491 17.257071 0.323836 -1.707910 21.470887 -0.000001 -0.000002 0.000000 2.087610 -6.657654 34.904220 0.373626 -1.829391 23.084019 0.000001 -0.000001 -0.000001 6.595916 -16.402351 51.253282 0.465288 -2.030944 25.805156 0.000001 0.000001 0.000002 -0.000000 0.000003 0.000004 0.000001 -0.000000 0.000003 -0.000000 0.000003 0.000004 -0.000003 0.000003 -0.000000 -0.000003 0.000003 -0.000000 -0.000003 0.000003 -0.000000 -0.000003 0.000003 0.000000 -0.000000 -0.000000 -0.000002 -0.000000 -0.000000 -0.000002 -0.000000 -0.000000 -0.000002 -0.000000 -0.000000 -0.000002 -0.000000 -0.000000 -0.000002 -0.000000 -0.000000 -0.000002 -0.000000 -0.000000 -0.000002 0.000001 -0.000000 -0.000000 -0.000001 0.000000 0.000001 
